<svg width="29" height="29" viewBox="0 0 29 29" fill="none" xmlns="http://www.w3.org/2000/svg">
<g clip-path="url(#clip0_2_55)">
<path fill-rule="evenodd" clip-rule="evenodd" d="M15.95 23.2C16.7191 23.2 17.4568 23.5055 18.0006 24.0494C18.5445 24.5932 18.85 25.3309 18.85 26.1C18.85 26.8691 18.5445 27.6068 18.0006 28.1506C17.4568 28.6945 16.7191 29 15.95 29C15.1809 29 14.4432 28.6945 13.8994 28.1506C13.3555 27.6068 13.05 26.8691 13.05 26.1C13.05 25.3309 13.3555 24.5932 13.8994 24.0494C14.4432 23.5055 15.1809 23.2 15.95 23.2ZM6.87445 18.85C7.83586 18.85 8.75789 19.2319 9.43771 19.9117C10.1175 20.5916 10.4995 21.5136 10.4995 22.475C10.4995 23.4364 10.1175 24.3584 9.43771 25.0383C8.75789 25.7181 7.83586 26.1 6.87445 26.1C5.91304 26.1 4.99101 25.7181 4.31119 25.0383C3.63137 24.3584 3.24945 23.4364 3.24945 22.475C3.24945 21.5136 3.63137 20.5916 4.31119 19.9117C4.99101 19.2319 5.91304 18.85 6.87445 18.85ZM23.6626 19.575C24.4317 19.575 25.1693 19.8805 25.7132 20.4244C26.257 20.9682 26.5626 21.7059 26.5626 22.475C26.5626 23.2441 26.257 23.9818 25.7132 24.5256C25.1693 25.0695 24.4317 25.375 23.6626 25.375C22.8934 25.375 22.1558 25.0695 21.6119 24.5256C21.0681 23.9818 20.7626 23.2441 20.7626 22.475C20.7626 21.7059 21.0681 20.9682 21.6119 20.4244C22.1558 19.8805 22.8934 19.575 23.6626 19.575ZM26.825 13.5126C27.4018 13.5126 27.9551 13.7417 28.363 14.1496C28.7708 14.5575 29 15.1107 29 15.6876C29 16.2644 28.7708 16.8176 28.363 17.2255C27.9551 17.6334 27.4018 17.8626 26.825 17.8626C26.2482 17.8626 25.6949 17.6334 25.287 17.2255C24.8792 16.8176 24.65 16.2644 24.65 15.6876C24.65 15.1107 24.8792 14.5575 25.287 14.1496C25.6949 13.7417 26.2482 13.5126 26.825 13.5126ZM3.625 8.7C4.58641 8.7 5.50844 9.08192 6.18826 9.76174C6.86808 10.4416 7.25 11.3636 7.25 12.325C7.25 13.2864 6.86808 14.2084 6.18826 14.8883C5.50844 15.5681 4.58641 15.95 3.625 15.95C2.66359 15.95 1.74156 15.5681 1.06174 14.8883C0.381919 14.2084 0 13.2864 0 12.325C0 11.3636 0.381919 10.4416 1.06174 9.76174C1.74156 9.08192 2.66359 8.7 3.625 8.7ZM25.7897 7.55015C26.1743 7.55015 26.5431 7.70292 26.815 7.97485C27.0869 8.24677 27.2397 8.61559 27.2397 9.00015C27.2397 9.38471 27.0869 9.75353 26.815 10.0255C26.5431 10.2974 26.1743 10.4502 25.7897 10.4502C25.4051 10.4502 25.0363 10.2974 24.7644 10.0255C24.4925 9.75353 24.3397 9.38471 24.3397 9.00015C24.3397 8.61559 24.4925 8.24677 24.7644 7.97485C25.0363 7.70292 25.4051 7.55015 25.7897 7.55015ZM11.6 0C12.7537 0 13.8601 0.458302 14.6759 1.27409C15.4917 2.08987 15.95 3.19631 15.95 4.35C15.95 5.50369 15.4917 6.61013 14.6759 7.42591C13.8601 8.2417 12.7537 8.7 11.6 8.7C10.4463 8.7 9.33987 8.2417 8.52409 7.42591C7.7083 6.61013 7.25 5.50369 7.25 4.35C7.25 3.19631 7.7083 2.08987 8.52409 1.27409C9.33987 0.458302 10.4463 0 11.6 0V0ZM22.475 4.35C22.6673 4.35 22.8517 4.42638 22.9877 4.56235C23.1236 4.69831 23.2 4.88272 23.2 5.075C23.2 5.26728 23.1236 5.45169 22.9877 5.58765C22.8517 5.72362 22.6673 5.8 22.475 5.8C22.2827 5.8 22.0983 5.72362 21.9623 5.58765C21.8264 5.45169 21.75 5.26728 21.75 5.075C21.75 4.88272 21.8264 4.69831 21.9623 4.56235C22.0983 4.42638 22.2827 4.35 22.475 4.35Z" fill="#C5CFD5"/>
</g>
<defs>
<clipPath id="clip0_2_55">
<rect width="29" height="29" fill="white"/>
</clipPath>
</defs>
</svg>
